<svg width="1483" height="463" xmlns="http://www.w3.org/2000/svg" xmlns:xlink="http://www.w3.org/1999/xlink" xml:space="preserve" overflow="hidden"><defs><linearGradient x1="2398.73" y1="313.442" x2="2308.07" y2="516.721" gradientUnits="userSpaceOnUse" spreadMethod="reflect" id="fill0"><stop offset="0" stop-color="#65ADF1"/><stop offset="0.48" stop-color="#2F45BB"/><stop offset="1" stop-color="#0D0599"/></linearGradient><linearGradient x1="90.4135" y1="370.29" x2="90.4135" y2="-8.34408e-05" gradientUnits="userSpaceOnUse" spreadMethod="reflect" id="fill1"><stop offset="0" stop-color="#65ADF1" stop-opacity="0.231373"/><stop offset="0.6" stop-color="#2F45BB"/><stop offset="1" stop-color="#0D0599"/></linearGradient></defs><g transform="translate(-2241 -215)"><path d="M2250.97 369.402C2276.01 313.268 2342.16 288.214 2398.73 313.442 2455.3 338.671 2480.86 404.627 2455.82 460.761 2430.79 516.895 2364.64 541.949 2308.07 516.721 2251.5 491.492 2225.94 425.536 2250.97 369.402Z" fill="url(#fill0)" fill-rule="evenodd"/><path d="M179.324 370.29C79.4599 369.441-0.823425 285.861 0.00644097 183.61 0.831435 81.959 81.5454-8.34408e-05 180.827-8.34408e-05L180.827 185.148Z" fill="url(#fill1)" fill-rule="evenodd" transform="matrix(-0.937752 -0.347307 -0.347307 0.937752 2587.27 304.261)"/><text fill="#0A0096" font-family="72 Black,72 Black_MSFontService,sans-serif" font-weight="900" font-size="220" transform="matrix(1 0 0 1 2569.87 496)">ASNR</text><text fill="#0A0096" font-family="Arial,Arial_MSFontService,sans-serif" font-weight="400" font-size="50" transform="matrix(1 0 0 1 3227.3 378)">Autorité de</text><text fill="#0A0096" font-family="Arial,Arial_MSFontService,sans-serif" font-weight="400" font-size="50" transform="matrix(1 0 0 1 3227.3 439)">sûreté nucléaire</text><text fill="#0A0096" font-family="Arial,Arial_MSFontService,sans-serif" font-weight="400" font-size="50" transform="matrix(1 0 0 1 3227.3 499)">et de radioprotection</text></g></svg>